<svg width="100" height="97" viewBox="0 0 100 97" fill="none" xmlns="http://www.w3.org/2000/svg">
<path d="M98.4 12.879C96.9122 9.35497 94.4178 6.34816 91.2291 4.23512C88.0405 2.12209 84.2993 0.996752 80.474 1.00003C77.4969 0.966939 74.5435 1.53353 71.79 2.66603C68.4794 4.06309 65.6307 6.36686 63.572 9.31203C61.5143 6.36678 58.6662 4.06294 55.356 2.66603C52.602 1.53387 49.6484 0.967296 46.671 1.00003C44.1162 0.998055 41.586 1.49983 39.2253 2.47665C36.8645 3.45347 34.7195 4.88616 32.913 6.69275C31.1065 8.49935 29.6739 10.6444 28.6973 13.0052C27.7206 15.366 27.2189 17.8962 27.221 20.451C27.2338 23.847 27.7618 27.2214 28.787 30.459C29.7943 33.6126 31.1669 36.6374 32.877 39.472C36.2306 44.9101 40.3552 49.833 45.122 54.087C48.9245 57.5433 52.9868 60.7026 57.273 63.537C60.61 65.749 62.812 66.925 62.834 66.937C63.0613 67.0588 63.3152 67.1225 63.573 67.1225C63.8309 67.1225 64.0847 67.0588 64.312 66.937C64.545 66.812 66.682 65.652 69.872 63.537C74.1585 60.7029 78.2211 57.544 82.024 54.088C86.7912 49.8337 90.9162 44.9105 94.27 39.472C95.9799 36.6376 97.3519 33.6127 98.358 30.459C99.3844 27.2217 99.9128 23.8472 99.925 20.451C99.9304 17.8502 99.4117 15.275 98.4 12.879ZM96.8 20.453C96.8 33.546 87.642 44.695 79.958 51.742C76.2765 55.0913 72.3433 58.1529 68.193 60.9C66.107 62.284 64.445 63.267 63.574 63.766C62.545 63.176 60.941 62.217 58.956 60.9C54.8079 58.1528 50.8761 55.0922 47.195 51.745C39.512 44.697 30.354 33.545 30.354 20.456C30.358 16.1289 32.0785 11.9801 35.1379 8.92008C38.1974 5.86005 42.3459 4.13879 46.673 4.13403C51.1357 3.97798 55.4837 5.56624 58.795 8.56203C60.1813 9.8246 61.3122 11.3418 62.126 13.031C62.2417 13.3211 62.4417 13.5698 62.7001 13.745C62.9586 13.9202 63.2637 14.0139 63.576 14.0139C63.8883 14.0139 64.1934 13.9202 64.4519 13.745C64.7104 13.5698 64.9104 13.3211 65.026 13.031C65.8372 11.3387 66.9687 9.81969 68.358 8.55803C71.6693 5.56513 76.0153 3.97847 80.476 4.13403C84.8026 4.13879 88.9506 5.85964 92.01 8.91901C95.0694 11.9784 96.7903 16.1264 96.795 20.453" fill="#2C6C78"/>
<path d="M34.4 47.648C36.2485 49.2846 37.829 51.2009 39.084 53.327C39.284 53.66 39.5 54.012 39.724 54.385C40.912 56.4364 42.2245 58.4131 43.654 60.304C44.894 61.904 46.591 63.881 48.39 65.978L48.513 66.122C49.23 66.958 49.972 67.822 50.687 68.666C53.349 71.814 54.387 73.728 54.387 75.496C54.3868 75.7327 54.3664 75.9689 54.326 76.202C58.158 78.302 62.354 80.613 65.558 82.39C71.802 85.853 72.1 86.072 72.258 86.19C74.158 87.59 76.211 90.015 76.211 92.025C76.211 92.05 76.211 92.075 76.211 92.1C76.2276 92.229 76.236 92.359 76.236 92.489C76.2345 92.8023 76.1918 93.1139 76.109 93.416C75.901 94.1443 75.5206 94.8118 75 95.362C74.6184 95.7437 74.1507 96.028 73.6363 96.1913C73.1219 96.3545 72.5758 96.3918 72.044 96.3C70.9138 96.1652 69.8138 95.8435 68.789 95.348C59.1793 91.5763 49.2852 88.5738 39.2 86.369H39.189C37.7601 85.9982 36.4672 85.2261 35.463 84.144C35.445 84.124 35.427 84.103 35.41 84.082C30.9446 78.4706 26.1449 73.1336 21.037 68.1C14.807 62.523 6.81602 62.862 2.97602 63.024C2.68902 63.036 2.41702 63.048 2.17002 63.056C1.94802 63.071 1.74602 63.079 1.53102 63.079C1.32684 63.0784 1.12483 63.0371 0.936804 62.9575C0.748778 62.8779 0.578511 62.7616 0.435958 62.6154C0.293406 62.4692 0.18143 62.2961 0.106579 62.1061C0.0317273 61.9162 -0.00449719 61.7132 2.34132e-05 61.509V44.964C-0.00712956 44.7643 0.0266473 44.5653 0.0992766 44.3791C0.171906 44.193 0.281852 44.0236 0.422353 43.8815C0.562853 43.7394 0.730938 43.6276 0.916268 43.5529C1.1016 43.4782 1.30026 43.4421 1.50002 43.447H19.113C22.447 43.447 25.896 43.422 29.297 44.665C31.1675 45.3359 32.8977 46.3473 34.4 47.648ZM2.98402 46.626V59.879C5.90294 59.7001 8.83273 59.8534 11.717 60.336C15.9446 61.0511 19.8896 62.9293 23.11 65.76C28.3468 70.9051 33.2662 76.3635 37.841 82.105C38.4101 82.6802 39.12 83.096 39.9 83.311C50.161 85.5545 60.2264 88.6143 70 92.461C70.023 92.4692 70.0453 92.4789 70.067 92.49C70.8855 92.9503 71.8111 93.1863 72.75 93.174C72.8987 93.0091 73.0114 92.8149 73.081 92.604C73.0902 92.57 73.0966 92.5352 73.1 92.5C73.0811 92.384 73.0717 92.2666 73.072 92.149C73.072 92.108 73.072 92.065 73.072 92.023C72.944 91.5337 72.7086 91.0791 72.383 90.692C71.8263 89.9445 71.1629 89.2828 70.414 88.728C69.682 88.248 61.557 83.748 53.973 79.587C53.837 79.736 53.692 79.887 53.539 80.031C52.332 81.1177 50.7501 81.6931 49.127 81.636C47.9994 81.5647 46.8984 81.2633 45.8916 80.7505C44.8849 80.2377 43.9937 79.5242 43.273 78.654C42.873 78.225 42.237 77.486 41.562 76.704L41.528 76.667C41.52 76.657 41.51 76.646 41.502 76.635L41.402 76.513C40.843 75.865 40.265 75.194 39.772 74.643C38.592 73.319 36.625 71.352 34.378 69.249C34.028 68.921 33.667 68.643 33.285 68.349C33.239 68.313 33.193 68.278 33.147 68.244C32.4515 67.7552 31.708 67.3384 30.928 67C30.7476 66.9311 30.5815 66.8294 30.438 66.7C30.249 66.5968 30.084 66.4547 29.954 66.283C29.6589 65.8992 29.4968 65.4298 29.4921 64.9457C29.4874 64.4615 29.6403 63.989 29.9279 63.5995C30.2154 63.21 30.6219 62.9246 31.0859 62.7865C31.5499 62.6484 32.0463 62.6651 32.5 62.834C34.3241 63.5761 35.9949 64.6495 37.428 66C39.783 68.2 41.85 70.274 43.103 71.679C43.656 72.299 44.291 73.036 44.908 73.75L44.921 73.764C45.58 74.526 46.201 75.248 46.549 75.622C46.8754 76.0469 47.2824 76.4032 47.7468 76.6704C48.2111 76.9376 48.7237 77.1104 49.255 77.179C49.681 77.2012 50.1017 77.0758 50.446 76.824C50.7936 76.5377 51.0607 76.1659 51.221 75.745C51.2423 75.6651 51.2527 75.5827 51.252 75.5C51.252 74.192 49.024 71.56 48.292 70.7C47.585 69.865 46.847 69 46.133 68.172L46.01 68.028C44.186 65.902 42.463 63.893 41.176 62.228C39.6699 60.2389 38.2876 58.159 37.037 56C36.816 55.632 36.608 55.334 36.411 55.014C31.241 46.576 25.622 46.625 19.111 46.625L2.98402 46.626Z" fill="#2C6C78"/>
<path d="M35.661 23.772C35.3154 23.7718 34.9804 23.6523 34.7128 23.4337C34.4451 23.215 34.2612 22.9106 34.192 22.572C33.603 19.7096 34.1091 16.7303 35.6104 14.2229C37.1116 11.7156 39.4987 9.86255 42.3 9.03001C42.4894 8.97084 42.6886 8.94981 42.8861 8.96816C43.0837 8.9865 43.2756 9.04384 43.4508 9.13686C43.626 9.22989 43.781 9.35674 43.9069 9.51008C44.0328 9.66343 44.1269 9.84021 44.184 10.0302C44.2411 10.2202 44.2599 10.4196 44.2394 10.6169C44.2189 10.8143 44.1594 11.0055 44.0644 11.1797C43.9695 11.3539 43.8409 11.5075 43.6862 11.6317C43.5315 11.7558 43.3536 11.848 43.163 11.903C41.0787 12.5209 39.3024 13.8992 38.1862 15.7648C37.07 17.6304 36.6952 19.8472 37.136 21.976C37.1806 22.1942 37.176 22.4196 37.1226 22.6358C37.0691 22.852 36.9682 23.0536 36.8272 23.226C36.6861 23.3983 36.5085 23.5371 36.3071 23.6323C36.1058 23.7274 35.8857 23.7765 35.663 23.776" fill="#2C6C78"/>
<path d="M47.436 10.616C47.2625 10.4005 47.1519 10.1412 47.1166 9.86669C47.0813 9.59223 47.1226 9.31334 47.2359 9.06089C47.3492 8.80843 47.5302 8.59225 47.7588 8.43626C47.9873 8.28028 48.2546 8.19056 48.531 8.17704L49.501 8.12904C49.8988 8.10967 50.2881 8.24914 50.5831 8.51676C50.8781 8.78437 51.0547 9.15821 51.074 9.55603C51.0934 9.95386 50.9539 10.3431 50.6863 10.6381C50.4187 10.9331 50.0448 11.1097 49.647 11.129L48.677 11.177C48.4409 11.1885 48.2054 11.1441 47.9897 11.0473C47.7741 10.9505 47.5843 10.8041 47.436 10.62" fill="#2C6C78"/>
</svg>
