<svg width="89" height="96" viewBox="0 0 89 96" fill="none" xmlns="http://www.w3.org/2000/svg">
<path d="M47.208 95.324H41.208C38.3746 95.3211 35.6582 94.1945 33.6543 92.1915C31.6505 90.1884 30.5229 87.4723 30.519 84.639C30.5037 83.3612 30.1522 82.1099 29.5 81.011C29.0021 80.1379 28.3366 79.3717 27.5417 78.7565C26.7468 78.1414 25.8382 77.6893 24.8681 77.4263C23.898 77.1634 22.8855 77.0947 21.8887 77.2242C20.892 77.3537 19.9307 77.6788 19.06 78.181L18.969 78.232C16.4874 79.6006 13.5638 79.9275 10.8413 79.1408C8.11874 78.3541 5.82012 76.5182 4.45096 74.037L1.43296 68.837C0.732317 67.6263 0.277693 66.2892 0.0951909 64.9024C-0.0873112 63.5155 0.00590274 62.1063 0.369481 60.7556C0.73306 59.4049 1.35984 58.1393 2.21385 57.0314C3.06785 55.9236 4.13226 54.9954 5.34596 54.3C6.514 53.6252 7.48389 52.6549 8.1582 51.4865C8.83251 50.3182 9.18749 48.993 9.18749 47.644C9.18749 46.295 8.83251 44.9698 8.1582 43.8015C7.48389 42.6331 6.514 41.6628 5.34596 40.988C2.89938 39.5692 1.11403 37.2394 0.380217 34.5081C-0.353594 31.7767 0.0238239 28.8659 1.42996 26.412L4.65496 21.1C6.07917 18.6639 8.40807 16.889 11.1346 16.1617C13.8612 15.4345 16.7647 15.8138 19.213 17.217C20.3212 17.8769 21.5842 18.2323 22.874 18.247H22.891C24.9072 18.2373 26.8395 17.4382 28.2736 16.021C29.7077 14.6037 30.5295 12.681 30.563 10.665C30.5574 7.84221 31.6733 5.1328 33.6653 3.13275C35.6573 1.1327 38.3622 0.00582891 41.185 0L47.207 0C47.321 0 47.435 0 47.55 0C50.3826 0.0934624 53.0624 1.30693 55.0013 3.37408C56.9403 5.44123 57.9799 8.19319 57.892 11.026C57.9152 12.2877 58.2668 13.5215 58.912 14.606C59.4199 15.4734 60.094 16.2321 60.8955 16.8386C61.6971 17.4452 62.6104 17.8878 63.5831 18.141C64.5559 18.3942 65.569 18.453 66.5646 18.3142C67.5602 18.1754 68.5186 17.8416 69.385 17.332C71.8387 15.9222 74.7507 15.5411 77.4846 16.2719C80.2185 17.0027 82.5519 18.786 83.975 21.232L86.963 26.42C87.0019 26.4907 87.0353 26.5642 87.063 26.64C88.383 29.0844 88.7028 31.9456 87.955 34.6211C87.2072 37.2966 85.4501 39.5774 83.054 40.983C81.881 41.6495 80.909 42.6194 80.24 43.791C79.7296 44.6615 79.3971 45.6246 79.2617 46.6246C79.1262 47.6245 79.1906 48.6414 79.451 49.6163C79.7115 50.5912 80.1628 51.5047 80.7789 52.3038C81.3949 53.103 82.1635 53.772 83.04 54.272C83.046 54.272 83.14 54.326 83.14 54.33C85.5697 55.7534 87.3357 58.0824 88.0505 60.8061C88.7653 63.5299 88.3706 66.4259 86.953 68.859L83.781 74.159C82.3579 76.5974 80.0288 78.3745 77.3011 79.1032C74.5735 79.8318 71.6684 79.4529 69.219 78.049C68.0937 77.4079 66.8276 77.0541 65.533 77.019C64.5266 77.0194 63.5302 77.2184 62.6009 77.6046C61.6716 77.9908 60.8276 78.5566 60.1174 79.2696C59.4072 79.9827 58.8446 80.8288 58.4621 81.7596C58.0795 82.6905 57.8844 83.6876 57.888 84.694C57.8651 87.5148 56.7309 90.2129 54.7316 92.2029C52.7322 94.1929 50.0289 95.3144 47.208 95.324ZM22.872 74.157C24.7276 74.1533 26.5517 74.6373 28.1614 75.5604C29.7711 76.4836 31.11 77.8135 32.044 79.417C32.9879 80.9915 33.4969 82.7884 33.519 84.624C33.519 86.6637 34.3283 88.6202 35.7693 90.0638C37.2103 91.5074 39.1652 92.3203 41.205 92.324H47.205C49.2332 92.3204 51.178 91.5167 52.6171 90.0875C54.0562 88.6584 54.8733 86.7191 54.891 84.691C54.8792 81.8777 55.9832 79.1744 57.9608 77.1735C59.9385 75.1726 62.6287 74.0371 65.442 74.016H65.6C67.3981 74.0626 69.1569 74.5528 70.72 75.443C72.484 76.4526 74.5758 76.7238 76.539 76.1974C78.5022 75.671 80.1776 74.3898 81.2 72.633L84.375 67.333C85.3888 65.5873 85.6692 63.5108 85.1546 61.5587C84.6401 59.6066 83.3726 57.9382 81.63 56.919L81.541 56.867C79.0992 55.4691 77.3118 53.1596 76.5708 50.4453C75.8299 47.731 76.1961 44.8336 77.589 42.389C77.589 42.384 77.644 42.289 77.647 42.289C78.5791 40.6612 79.9302 39.3128 81.56 38.384C83.3028 37.3592 84.5731 35.6905 85.0969 33.7377C85.6207 31.7849 85.356 29.7045 84.36 27.945C84.3238 27.8808 84.2927 27.814 84.267 27.745L81.378 22.729C80.355 20.9735 78.6796 19.6934 76.7169 19.1678C74.7542 18.6422 72.6634 18.9137 70.9 19.923C68.475 21.3505 65.583 21.7586 62.8577 21.058C60.1323 20.3574 57.7958 18.6051 56.36 16.185C55.4216 14.6144 54.9155 12.8234 54.893 10.994C54.9307 9.98059 54.7681 8.9697 54.4147 8.01919C54.0612 7.06868 53.5237 6.19721 52.833 5.45468C52.1423 4.71215 51.312 4.11314 50.3895 3.69193C49.467 3.27072 48.4704 3.03559 47.457 3H47.207H41.186C39.1648 3.00212 37.227 3.8059 35.7977 5.235C34.3684 6.66411 33.5643 8.60181 33.562 10.623C33.5316 13.4415 32.3942 16.1351 30.3954 18.1225C28.3966 20.1099 25.6966 21.2317 22.878 21.246H22.855C21.04 21.2279 19.2619 20.7315 17.7 19.807C15.9358 18.8031 13.8466 18.5364 11.8868 19.0648C9.92705 19.5933 8.2552 20.8742 7.23496 22.629L4.01296 27.938C3.01159 29.7012 2.74723 31.7886 3.27744 33.7457C3.80766 35.7029 5.08951 37.3714 6.84396 38.388C8.46847 39.3261 9.81745 40.6753 10.7553 42.3C11.6932 43.9247 12.187 45.7676 12.187 47.6435C12.187 49.5194 11.6932 51.3623 10.7553 52.987C9.81745 54.6117 8.46847 55.9609 6.84396 56.899C5.97436 57.3959 5.21124 58.0594 4.59825 58.8515C3.98525 59.6436 3.5344 60.5487 3.27147 61.5152C3.00854 62.4816 2.9387 63.4904 3.06593 64.4839C3.19316 65.4774 3.51497 66.436 4.01296 67.305L7.06196 72.559C7.54678 73.4474 8.20231 74.2312 8.99093 74.8656C9.77954 75.4999 10.6857 75.9722 11.6573 76.2553C12.629 76.5384 13.647 76.6268 14.6529 76.5154C15.6588 76.404 16.6328 76.0949 17.519 75.606C19.1435 74.6575 20.9908 74.1575 22.872 74.157Z" fill="#2C6C78"/>
<path d="M63.291 38.819C62.4534 36.8329 61.0481 35.1384 59.2514 33.9477C57.4546 32.7571 55.3464 32.1233 53.191 32.126C51.5257 32.1082 49.8739 32.4258 48.334 33.06C46.7278 33.7373 45.3104 34.795 44.204 36.142C43.0967 34.7959 41.6795 33.7383 40.074 33.06C38.5341 32.4256 36.8823 32.108 35.217 32.126C33.7774 32.1249 32.3517 32.4077 31.0215 32.9581C29.6913 33.5085 28.4827 34.3158 27.4647 35.3337C26.4468 36.3517 25.6395 37.5603 25.0891 38.8905C24.5387 40.2207 24.2559 41.6464 24.257 43.086C24.2637 44.954 24.554 46.8101 25.118 48.591C25.6673 50.3143 26.4167 51.9672 27.351 53.516C29.1646 56.4598 31.3962 59.1247 33.976 61.427C36.0219 63.2865 38.2077 64.9862 40.514 66.511C42.325 67.711 43.514 68.344 43.521 68.349C43.7308 68.4615 43.9653 68.5204 44.2035 68.5204C44.4416 68.5204 44.6761 68.4615 44.886 68.349C44.897 68.343 46.078 67.714 47.894 66.511C50.2007 64.9856 52.3871 63.2856 54.434 61.426C57.0126 59.1228 59.2438 56.4581 61.058 53.515C61.9914 51.9658 62.7408 50.3129 63.291 48.59C63.8549 46.8091 64.1448 44.9529 64.151 43.085C64.154 41.6191 63.8608 40.1677 63.289 38.818M44.207 40.278C44.4946 40.2792 44.776 40.1941 45.0147 40.0336C45.2534 39.8732 45.4385 39.6448 45.546 39.378C45.9459 38.5606 46.4966 37.8261 47.169 37.213C48.8167 35.7284 50.9775 34.9433 53.194 35.024C55.3313 35.0261 57.3805 35.876 58.892 37.3873C60.4034 38.8985 61.2536 40.9476 61.256 43.085C61.256 49.823 56.494 55.605 52.5 59.268C50.5664 61.0268 48.5007 62.6345 46.321 64.077C45.461 64.648 44.737 65.091 44.207 65.402C43.715 65.112 42.976 64.663 42.092 64.077C39.9131 62.6342 37.8481 61.0264 35.915 59.268C31.915 55.605 27.158 49.823 27.158 43.085C27.1603 40.9476 28.0105 38.8985 29.522 37.3873C31.0334 35.876 33.0826 35.0261 35.22 35.024C37.4364 34.943 39.5974 35.7281 41.245 37.213C41.9148 37.8236 42.464 38.5546 42.864 39.368C42.971 39.6365 43.1563 39.8667 43.3958 40.0286C43.6353 40.1905 43.9179 40.2767 44.207 40.276" fill="#2C6C78"/>
<path d="M11.867 38.983C11.7381 38.983 11.6096 38.9662 11.485 38.933C9.30015 37.77 7.56665 35.9102 6.56002 33.649C6.32562 32.8283 6.25963 31.9686 6.366 31.1217C6.47238 30.2749 6.74893 29.4582 7.17902 28.721L7.26202 28.553C7.4212 28.193 7.7136 27.9086 8.07789 27.7594C8.44218 27.6103 8.85007 27.608 9.21602 27.753C9.57659 27.8969 9.86624 28.1767 10.0226 28.532C10.179 28.8874 10.1895 29.2899 10.052 29.653C10.015 29.753 9.95202 29.89 9.85802 30.068C9.36758 30.84 9.20156 31.7743 9.39602 32.668C10.1058 34.0613 11.1654 35.2464 12.471 36.107C12.7858 36.2455 13.0434 36.4879 13.2008 36.7937C13.3581 37.0995 13.4056 37.45 13.3353 37.7866C13.265 38.1233 13.0812 38.4255 12.8146 38.6428C12.548 38.86 12.2149 38.9791 11.871 38.98" fill="#2C6C78"/>
<path d="M11.6 25.763C11.3232 25.7629 11.0518 25.6861 10.8159 25.5413C10.5801 25.3964 10.3888 25.1892 10.2635 24.9424C10.1381 24.6956 10.0835 24.4189 10.1056 24.143C10.1278 23.8671 10.2259 23.6027 10.389 23.379L10.961 22.595C11.0758 22.4327 11.2216 22.2947 11.3902 22.1892C11.5587 22.0837 11.7466 22.0128 11.9428 21.9806C12.139 21.9484 12.3396 21.9555 12.5331 22.0015C12.7265 22.0475 12.9089 22.1315 13.0695 22.2486C13.2302 22.3657 13.366 22.5137 13.469 22.6837C13.572 22.8538 13.6402 23.0427 13.6695 23.2393C13.6989 23.436 13.6888 23.6365 13.64 23.8292C13.5911 24.022 13.5045 24.2031 13.385 24.362L12.813 25.147C12.6737 25.338 12.4911 25.4934 12.2803 25.6005C12.0695 25.7075 11.8364 25.7632 11.6 25.763Z" fill="#2C6C78"/>
</svg>
