<?xml version="1.0" encoding="utf-8"?>
<!-- Generator: Adobe Illustrator 26.0.0, SVG Export Plug-In . SVG Version: 6.00 Build 0)  -->
<svg version="1.1" id="Layer_1" xmlns="http://www.w3.org/2000/svg" xmlns:xlink="http://www.w3.org/1999/xlink" x="0px" y="0px"
	 viewBox="0 0 80 76.6" style="enable-background:new 0 0 80 76.6;" xml:space="preserve">
<style type="text/css">
	.st0{fill:#2C6C78;}
</style>
<g>
	<path class="st0" d="M73.7,5.7h-6.2c-1.3-3.2-4.4-5.3-7.9-5.3c-3.6,0-6.6,2.2-7.9,5.3H37.9c-1.3-3.2-4.4-5.3-7.9-5.3
		c-3.6,0-6.6,2.2-7.9,5.3h-6.3c-3.5,0-6.3,2.8-6.3,6.3v52.1H1.5c-0.8,0-1.5,0.7-1.5,1.5v4.3c0,3.5,2.8,6.3,6.3,6.3h65.4
		c4.6,0,8.3-3.7,8.3-8.3V12C80,8.5,77.2,5.7,73.7,5.7z M59.6,3.4c1.8,0,3.5,0.9,4.5,2.3h-9C56.1,4.3,57.7,3.4,59.6,3.4z M30,3.4
		c1.8,0,3.5,0.9,4.5,2.3h-9C26.6,4.3,28.2,3.4,30,3.4z M15.9,8.7h5.6c0,0.1,0,0.1,0,0.2c0,4.7,3.8,8.5,8.5,8.5
		c0.8,0,1.5-0.7,1.5-1.5c0-0.8-0.7-1.5-1.5-1.5c-3,0-5.5-2.5-5.5-5.5c0-0.1,0-0.1,0-0.2h26.5c0,0.1,0,0.1,0,0.2
		c0,4.7,3.8,8.5,8.5,8.5c0.8,0,1.5-0.7,1.5-1.5c0-0.8-0.7-1.5-1.5-1.5c-3,0-5.5-2.5-5.5-5.5c0-0.1,0-0.1,0-0.2h19.6
		c1.8,0,3.3,1.5,3.3,3.3v7.5H12.6V12C12.6,10.2,14.1,8.7,15.9,8.7z M3,69.9v-2.8h6.6h1.5h51.5c0.5,0,0.8,0.4,0.8,0.8
		c0,2,0.7,3.8,1.9,5.2h-59C4.5,73.2,3,71.7,3,69.9z M71.7,73.2c-2.9,0-5.3-2.4-5.3-5.3c0-2.1-1.7-3.8-3.8-3.8h-50V22.5H77v45.4
		C77,70.9,74.6,73.2,71.7,73.2z"/>
	<path class="st0" d="M25.9,30h-5.7c-0.8,0-1.5,0.7-1.5,1.5s0.7,1.5,1.5,1.5h5.7c0.8,0,1.5-0.7,1.5-1.5S26.8,30,25.9,30z"/>
	<path class="st0" d="M25.9,37.3h-5.7c-0.8,0-1.5,0.7-1.5,1.5s0.7,1.5,1.5,1.5h5.7c0.8,0,1.5-0.7,1.5-1.5S26.8,37.3,25.9,37.3z"/>
	<path class="st0" d="M25.9,44.6h-5.7c-0.8,0-1.5,0.7-1.5,1.5s0.7,1.5,1.5,1.5h5.7c0.8,0,1.5-0.7,1.5-1.5S26.8,44.6,25.9,44.6z"/>
	<path class="st0" d="M25.9,52h-5.7c-0.8,0-1.5,0.7-1.5,1.5s0.7,1.5,1.5,1.5h5.7c0.8,0,1.5-0.7,1.5-1.5S26.8,52,25.9,52z"/>
	<path class="st0" d="M40.3,30h-5.7c-0.8,0-1.5,0.7-1.5,1.5s0.7,1.5,1.5,1.5h5.7c0.8,0,1.5-0.7,1.5-1.5S41.1,30,40.3,30z"/>
	<path class="st0" d="M40.3,37.3h-5.7c-0.8,0-1.5,0.7-1.5,1.5s0.7,1.5,1.5,1.5h5.7c0.8,0,1.5-0.7,1.5-1.5S41.1,37.3,40.3,37.3z"/>
	<path class="st0" d="M40.3,44.6h-5.7c-0.8,0-1.5,0.7-1.5,1.5s0.7,1.5,1.5,1.5h5.7c0.8,0,1.5-0.7,1.5-1.5S41.1,44.6,40.3,44.6z"/>
	<path class="st0" d="M40.3,52h-5.7c-0.8,0-1.5,0.7-1.5,1.5s0.7,1.5,1.5,1.5h5.7c0.8,0,1.5-0.7,1.5-1.5S41.1,52,40.3,52z"/>
	<path class="st0" d="M54.6,30h-5.7c-0.8,0-1.5,0.7-1.5,1.5S48,33,48.8,33h5.7c0.8,0,1.5-0.7,1.5-1.5S55.4,30,54.6,30z"/>
	<path class="st0" d="M54.6,37.3h-5.7c-0.8,0-1.5,0.7-1.5,1.5s0.7,1.5,1.5,1.5h5.7c0.8,0,1.5-0.7,1.5-1.5S55.4,37.3,54.6,37.3z"/>
	<path class="st0" d="M54.6,44.6h-5.7c-0.8,0-1.5,0.7-1.5,1.5s0.7,1.5,1.5,1.5h5.7c0.8,0,1.5-0.7,1.5-1.5S55.4,44.6,54.6,44.6z"/>
	<path class="st0" d="M54.6,52h-5.7c-0.8,0-1.5,0.7-1.5,1.5S48,55,48.8,55h5.7c0.8,0,1.5-0.7,1.5-1.5S55.4,52,54.6,52z"/>
	<path class="st0" d="M68.9,30h-5.7c-0.8,0-1.5,0.7-1.5,1.5s0.7,1.5,1.5,1.5h5.7c0.8,0,1.5-0.7,1.5-1.5S69.7,30,68.9,30z"/>
	<path class="st0" d="M68.9,37.3h-5.7c-0.8,0-1.5,0.7-1.5,1.5s0.7,1.5,1.5,1.5h5.7c0.8,0,1.5-0.7,1.5-1.5S69.7,37.3,68.9,37.3z"/>
	<path class="st0" d="M68.9,44.6h-5.7c-0.8,0-1.5,0.7-1.5,1.5s0.7,1.5,1.5,1.5h5.7c0.8,0,1.5-0.7,1.5-1.5S69.7,44.6,68.9,44.6z"/>
	<path class="st0" d="M68.9,52h-5.7c-0.8,0-1.5,0.7-1.5,1.5s0.7,1.5,1.5,1.5h5.7c0.8,0,1.5-0.7,1.5-1.5S69.7,52,68.9,52z"/>
</g>
</svg>
