<svg width="109" height="84" viewBox="0 0 109 84" fill="none" xmlns="http://www.w3.org/2000/svg">
<path d="M108.832 63.5C107.804 59.497 105.547 55.917 102.378 53.2639C99.2093 50.6108 95.2884 49.0181 91.167 48.71V20.867H97.13C97.5346 20.8665 97.9224 20.7055 98.2085 20.4195C98.4945 20.1334 98.6555 19.7456 98.656 19.341V1.526C98.6555 1.12144 98.4945 0.733605 98.2085 0.44754C97.9224 0.161474 97.5346 0.00052918 97.13 0L85.536 0C83.8772 0.00630189 82.2438 0.407699 80.771 1.17095C79.2983 1.9342 78.0286 3.03733 77.067 4.389H64.643C63.4694 4.389 62.3437 4.8546 61.513 5.68363C60.6823 6.51265 60.2144 7.63739 60.212 8.811V12.057C60.2131 13.2319 60.6802 14.3585 61.5109 15.1894C62.3416 16.0203 63.4681 16.4877 64.643 16.489H77.07C77.4091 16.9623 77.7871 17.4065 78.2 17.817H75.638C72.6998 17.8212 69.8832 18.9902 67.8055 21.0677C65.7278 23.1453 64.5585 25.9618 64.554 28.9V52.334C64.5527 53.4546 64.1069 54.5289 63.3144 55.3211C62.522 56.1134 61.4476 56.5589 60.327 56.56H59.327C58.287 56.5607 57.2834 56.1776 56.5084 55.4841C55.7334 54.7907 55.2415 53.8356 55.127 52.802L53.453 37.802H53.553C54.7798 37.8004 55.956 37.3123 56.8234 36.4447C57.6908 35.5771 58.1787 34.4008 58.18 33.174V31.557C58.1789 30.3299 57.6912 29.1533 56.8238 28.2853C55.9564 27.4173 54.7801 26.9289 53.553 26.927H47.111V11.559C47.4359 11.343 47.7027 11.0504 47.8881 10.7071C48.0734 10.3638 48.1716 9.98016 48.174 9.59V3.939C48.1729 3.30961 47.9225 2.70628 47.4776 2.26114C47.0326 1.816 46.4294 1.56532 45.8 1.564L35.288 1.572C35.2585 1.56314 35.2278 1.55843 35.197 1.558L14.427 1.564C13.7972 1.56453 13.1933 1.81489 12.7479 2.26015C12.3024 2.7054 12.0518 3.30918 12.051 3.939V9.59C12.0533 9.98018 12.1514 10.3638 12.3368 10.7072C12.5221 11.0505 12.789 11.343 13.114 11.559V26.926H12.814C11.5865 26.9273 10.4098 27.4156 9.54191 28.2836C8.67406 29.1517 8.18606 30.3285 8.185 31.556V33.169C8.18431 33.8202 8.32289 34.4641 8.59142 35.0574C8.85996 35.6507 9.25226 36.1797 9.742 36.609C6.82688 38.0689 4.37331 40.308 2.65363 43.0778C0.93395 45.8476 0.0154216 49.0398 0 52.3L0 64.647C0.00185213 66.0611 0.56442 67.4167 1.56434 68.4167C2.56426 69.4166 3.9199 69.9791 5.334 69.981H13.2C13.5788 73.687 15.3191 77.1206 18.084 79.6173C20.8489 82.1139 24.4417 83.496 28.167 83.496C31.8923 83.496 35.4851 82.1139 38.25 79.6173C41.0149 77.1206 42.7552 73.687 43.134 69.981H74.674C75.0525 73.6955 76.7988 77.1366 79.5733 79.6352C82.3479 82.1337 85.9525 83.5112 89.6862 83.4999C93.42 83.4886 97.0161 82.0892 99.7754 79.5738C102.535 77.0584 104.26 73.6068 104.616 69.89C105.92 69.7034 107.101 69.0184 107.91 67.979C108.397 67.3527 108.734 66.6225 108.894 65.8451C109.054 65.0677 109.033 64.2639 108.832 63.496M89.644 74.464C88.3154 74.4607 87.0249 74.02 85.9718 73.2098C84.9188 72.3997 84.1618 71.2653 83.818 69.982H95.466C95.1226 71.2648 94.3664 72.3989 93.3141 73.209C92.2618 74.0191 90.972 74.4602 89.644 74.464ZM101.549 69.982C101.175 72.8756 99.7602 75.5341 97.5689 77.4605C95.3776 79.3869 92.5597 80.4494 89.642 80.4494C86.7243 80.4494 83.9064 79.3869 81.7151 77.4605C79.5238 75.5341 78.1089 72.8756 77.735 69.982H80.711C81.0713 72.0899 82.1654 74.0024 83.8 75.3813C85.4345 76.7602 87.504 77.5166 89.6425 77.5166C91.781 77.5166 93.8505 76.7602 95.485 75.3813C97.1196 74.0024 98.2137 72.0899 98.574 69.982H101.549ZM28.167 74.464C26.8387 74.4606 25.5484 74.0198 24.4957 73.2096C23.443 72.3995 22.6865 71.2652 22.343 69.982H33.989C33.6461 71.2651 32.89 72.3995 31.8376 73.2096C30.7852 74.0198 29.4951 74.4607 28.167 74.464ZM40.067 69.982C39.7019 72.8821 38.2908 75.5492 36.0986 77.4826C33.9065 79.4161 31.084 80.4829 28.161 80.4829C25.238 80.4829 22.4155 79.4161 20.2234 77.4826C18.0312 75.5492 16.6201 72.8821 16.255 69.982H19.23C19.5909 72.0893 20.6852 74.0011 22.3196 75.3794C23.954 76.7577 26.023 77.5136 28.161 77.5136C30.299 77.5136 32.368 76.7577 34.0024 75.3794C35.6368 74.0011 36.7311 72.0893 37.092 69.982H40.067ZM15.1 4.614H23.5V8.914H15.1V4.614ZM16.165 11.966H24.081V26.923H16.163L16.165 11.966ZM33.092 26.923H27.129V11.966H33.092V26.923ZM26.552 4.614H33.67V8.75H26.552V4.614ZM36.142 11.966H44.058V26.923H36.142V11.966ZM36.721 4.614H45.121V8.914H36.721V4.614ZM55.121 33.168C55.1205 33.5861 54.9542 33.9869 54.6585 34.2825C54.3629 34.5782 53.9621 34.7445 53.544 34.745H12.812C12.3939 34.7445 11.9931 34.5782 11.6975 34.2825C11.4018 33.9869 11.2355 33.5861 11.235 33.168V31.554C11.2355 31.1358 11.4018 30.7349 11.6974 30.4391C11.993 30.1433 12.3938 29.9768 12.812 29.976H53.548C53.9662 29.9768 54.367 30.1433 54.6626 30.4391C54.9582 30.7349 55.1245 31.1358 55.125 31.554V33.168H55.121ZM11.548 66.347L11.567 66.215C11.605 65.915 11.646 65.62 11.701 65.328C11.748 65.084 11.801 64.844 11.862 64.602C11.931 64.315 12 64.028 12.083 63.747C12.147 63.525 12.222 63.308 12.31 63.047C12.403 62.771 12.503 62.497 12.61 62.23C12.701 62.003 12.799 61.78 12.9 61.558C13.019 61.295 13.143 61.035 13.276 60.779C13.388 60.5637 13.504 60.352 13.624 60.144C13.767 59.895 13.915 59.649 14.071 59.407C14.201 59.207 14.334 59.007 14.471 58.807C14.638 58.571 14.811 58.342 14.988 58.117C15.136 57.93 15.288 57.744 15.44 57.563C15.628 57.345 15.824 57.133 16.023 56.924C16.185 56.752 16.349 56.581 16.523 56.416C16.73 56.216 16.947 56.023 17.169 55.828C17.344 55.674 17.522 55.519 17.704 55.373C17.931 55.191 18.166 55.02 18.404 54.85L18.539 54.75C18.684 54.65 18.829 54.541 18.981 54.442C19.212 54.289 19.453 54.148 19.733 53.983L19.897 53.883C20.043 53.796 20.19 53.709 20.342 53.629C20.583 53.502 20.83 53.387 21.078 53.273L21.329 53.155C21.479 53.084 21.629 53.013 21.782 52.949C22.019 52.849 22.264 52.766 22.507 52.681L22.89 52.546C23.023 52.497 23.156 52.446 23.29 52.407C23.551 52.327 23.819 52.263 24.09 52.199L24.481 52.099C24.609 52.065 24.738 52.032 24.867 52.006C25.2 51.939 25.54 51.894 25.88 51.849L25.958 51.839C26.037 51.829 26.114 51.816 26.192 51.804C26.292 51.788 26.392 51.771 26.492 51.761C27.6058 51.6485 28.7282 51.6485 29.842 51.761C29.942 51.771 30.042 51.788 30.142 51.804C30.221 51.816 30.299 51.829 30.377 51.839L30.477 51.853C30.809 51.898 31.14 51.941 31.464 52.006C31.597 52.033 31.726 52.067 31.855 52.106L32.217 52.196C32.491 52.262 32.767 52.328 33.037 52.41C33.185 52.455 33.329 52.51 33.472 52.559L33.823 52.684C34.066 52.769 34.31 52.854 34.547 52.952C34.701 53.016 34.847 53.087 35 53.158L35.232 53.266C35.486 53.384 35.741 53.501 35.989 53.632C36.139 53.712 36.289 53.799 36.434 53.886L36.634 54.005C36.875 54.146 37.115 54.287 37.349 54.44C37.5 54.54 37.649 54.646 37.794 54.752L37.923 54.845C38.16 55.016 38.396 55.187 38.623 55.369C38.78 55.495 38.931 55.627 39.083 55.759L39.162 55.828C39.379 56.019 39.595 56.211 39.803 56.412C39.974 56.577 40.137 56.748 40.303 56.92C40.503 57.129 40.697 57.34 40.885 57.559C41.039 57.7397 41.1893 57.924 41.336 58.112C41.513 58.338 41.686 58.567 41.852 58.803C41.99 58.998 42.123 59.197 42.252 59.403C42.4067 59.645 42.5563 59.8903 42.701 60.139C42.821 60.349 42.935 60.559 43.048 60.775C43.1813 61.031 43.3067 61.2913 43.424 61.556C43.524 61.776 43.624 61.998 43.713 62.224C43.821 62.493 43.919 62.767 44.013 63.043C44.092 63.274 44.17 63.506 44.239 63.743C44.321 64.025 44.39 64.311 44.459 64.598L44.481 64.689C44.53 64.899 44.581 65.11 44.621 65.324C44.676 65.616 44.721 65.914 44.757 66.211L44.778 66.363C44.804 66.55 44.829 66.737 44.847 66.926H11.476C11.494 66.731 11.521 66.537 11.548 66.343M44.375 57.089C44.183 56.815 43.975 56.548 43.775 56.289C43.599 56.062 43.421 55.836 43.236 55.616C43.016 55.361 42.788 55.116 42.557 54.871L42.488 54.798C42.315 54.615 42.141 54.432 41.96 54.256C41.717 54.02 41.466 53.797 41.211 53.574L41.142 53.513C40.951 53.345 40.76 53.177 40.563 53.018C40.315 52.818 40.058 52.632 39.8 52.446L39.594 52.297C39.415 52.167 39.238 52.037 39.053 51.916C38.796 51.746 38.532 51.591 38.267 51.436L37.984 51.268C37.806 51.161 37.627 51.055 37.441 50.957C37.175 50.813 36.898 50.685 36.622 50.557L36.254 50.385C36.084 50.304 35.912 50.222 35.736 50.149C35.453 50.032 35.162 49.93 34.872 49.829L34.441 49.676C34.279 49.616 34.114 49.556 33.946 49.505C33.646 49.413 33.346 49.34 33.033 49.266L32.565 49.149C32.405 49.107 32.245 49.065 32.081 49.032C31.713 48.958 31.335 48.907 30.96 48.857L30.805 48.837C30.721 48.825 30.637 48.812 30.554 48.797C30.422 48.776 30.287 48.754 30.154 48.741C29.488 48.675 28.821 48.641 28.171 48.641C27.521 48.641 26.854 48.675 26.188 48.741C26.053 48.754 25.921 48.776 25.788 48.797C25.704 48.812 25.619 48.825 25.535 48.837L25.379 48.857C25.003 48.907 24.627 48.957 24.258 49.032C24.093 49.065 23.931 49.108 23.768 49.15L23.322 49.262C23.01 49.337 22.697 49.412 22.393 49.505C22.221 49.557 22.052 49.619 21.883 49.681L21.441 49.838C21.159 49.938 20.877 50.038 20.603 50.149C20.426 50.222 20.254 50.303 20.084 50.385L19.684 50.572C19.417 50.696 19.152 50.819 18.896 50.956C18.713 51.056 18.536 51.156 18.361 51.262L18.093 51.421C17.819 51.581 17.547 51.742 17.283 51.915C17.104 52.034 16.93 52.16 16.755 52.287L16.535 52.446C16.278 52.632 16.021 52.819 15.774 53.018C15.588 53.167 15.409 53.324 15.23 53.481L15.13 53.574C14.876 53.798 14.623 54.02 14.38 54.256C14.18 54.449 13.992 54.649 13.78 54.871C13.551 55.116 13.321 55.361 13.103 55.618C12.917 55.836 12.738 56.062 12.564 56.287C12.356 56.552 12.153 56.819 11.959 57.093C11.793 57.329 11.635 57.57 11.48 57.814C11.299 58.097 11.123 58.383 10.954 58.676C10.812 58.929 10.676 59.184 10.543 59.443C10.389 59.7417 10.2427 60.0453 10.104 60.354C9.984 60.621 9.869 60.89 9.76 61.164C9.63533 61.4787 9.519 61.797 9.411 62.119C9.311 62.399 9.225 62.681 9.141 62.968C9.048 63.297 8.965 63.628 8.885 63.968C8.819 64.259 8.753 64.552 8.698 64.848C8.635 65.188 8.585 65.532 8.541 65.876C8.502 66.176 8.464 66.482 8.441 66.789C8.441 66.837 8.43 66.889 8.423 66.935H5.337C4.73141 66.9345 4.15077 66.6937 3.72255 66.2654C3.29433 65.8372 3.05353 65.2566 3.053 64.651V52.3C3.05803 48.4559 4.58732 44.7707 7.3055 42.0525C10.0237 39.3343 13.7089 37.805 17.553 37.8H50.385L52.1 53.14C52.2973 54.9199 53.1445 56.5643 54.4792 57.7583C55.8139 58.9522 57.5422 59.6115 59.333 59.61H60.333C62.2623 59.6079 64.112 58.8405 65.4763 57.4763C66.8405 56.112 67.6079 54.2623 67.61 52.333V28.9C67.6126 26.7702 68.46 24.7283 69.9661 23.2224C71.4722 21.7164 73.5142 20.8694 75.644 20.867H81.194V50.541C81.102 50.587 81.013 50.635 80.923 50.683L80.51 50.897C80.349 50.977 80.189 51.059 80.033 51.146C79.692 51.335 79.365 51.546 79.033 51.746L78.833 51.872C78.709 51.948 78.584 52.025 78.466 52.107C78.094 52.362 77.743 52.635 77.415 52.892L77.251 53.017C77.166 53.079 77.081 53.143 77 53.21C76.0554 53.9951 75.1851 54.8654 74.4 55.81C74.335 55.888 74.275 55.97 74.215 56.051C74.171 56.109 74.128 56.166 74.083 56.223C73.827 56.548 73.555 56.901 73.299 57.274C73.212 57.399 73.133 57.529 73.052 57.658L72.937 57.843C72.727 58.17 72.521 58.497 72.337 58.837C72.246 58.998 72.164 59.164 72.081 59.33L71.996 59.497C71.828 59.826 71.665 60.155 71.515 60.497C71.423 60.706 71.339 60.919 71.256 61.132L71.221 61.22C71.088 61.555 70.962 61.893 70.847 62.237C70.763 62.492 70.686 62.75 70.612 63.009C70.512 63.353 70.423 63.701 70.343 64.052C70.283 64.32 70.227 64.588 70.176 64.86C70.11 65.215 70.057 65.574 70.012 65.936C69.976 66.213 69.941 66.49 69.918 66.771C69.913 66.824 69.906 66.871 69.901 66.929H47.915C47.909 66.88 47.902 66.829 47.897 66.783C47.872 66.477 47.833 66.174 47.797 65.87C47.75 65.525 47.703 65.182 47.638 64.843C47.585 64.543 47.52 64.253 47.451 63.961C47.373 63.626 47.289 63.294 47.196 62.961C47.114 62.676 47.023 62.395 46.927 62.113C46.817 61.79 46.702 61.472 46.577 61.159C46.469 60.885 46.353 60.616 46.233 60.348C46.095 60.0393 45.949 59.736 45.795 59.438C45.6617 59.1793 45.5237 58.923 45.381 58.669C45.214 58.377 45.039 58.091 44.858 57.808C44.704 57.564 44.545 57.323 44.378 57.086M79.184 6.686C79.8376 5.58112 80.7669 4.66484 81.8808 4.0268C82.9948 3.38875 84.2553 3.0508 85.539 3.046H89.439V17.816H85.539C84.2653 17.8097 83.0143 17.478 81.9049 16.8523C80.7955 16.2266 79.8644 15.3277 79.2 14.241C79.1951 14.2226 79.1873 14.205 79.177 14.189C78.5081 13.0525 78.1553 11.7577 78.1553 10.439C78.1553 9.12025 78.5081 7.82551 79.177 6.689M88.114 48.705C88.059 48.711 88.006 48.719 87.953 48.724C87.672 48.747 87.395 48.781 87.118 48.816C86.757 48.863 86.399 48.916 86.045 48.981C85.772 49.031 85.503 49.087 85.234 49.148C84.9007 49.2247 84.5673 49.3103 84.234 49.405V20.867H88.113L88.114 48.705ZM73.031 66.316L73.044 66.216C73.084 65.916 73.124 65.621 73.179 65.329C73.228 65.085 73.285 64.845 73.342 64.602C73.41 64.315 73.479 64.029 73.561 63.748C73.631 63.512 73.709 63.28 73.789 63.048C73.883 62.772 73.98 62.499 74.089 62.23C74.179 62.003 74.278 61.78 74.377 61.56C74.497 61.297 74.621 61.036 74.753 60.78C74.866 60.565 74.981 60.354 75.102 60.145C75.244 59.896 75.394 59.645 75.549 59.407C75.6823 59.207 75.8157 59.007 75.949 58.807C76.1157 58.5717 76.288 58.3417 76.466 58.117C76.615 57.93 76.766 57.744 76.918 57.563C77.106 57.344 77.301 57.133 77.499 56.924C77.663 56.752 77.827 56.581 77.999 56.416C78.207 56.216 78.425 56.023 78.675 55.803C78.841 55.657 79.008 55.512 79.175 55.374C79.405 55.191 79.639 55.02 79.875 54.85L80.004 54.756C80.152 54.65 80.299 54.544 80.451 54.444C80.698 54.283 80.951 54.135 81.206 53.985L81.368 53.885C81.516 53.798 81.662 53.711 81.814 53.631C82.055 53.503 82.302 53.389 82.55 53.274L82.797 53.159C82.948 53.087 83.097 53.015 83.254 52.951C83.491 52.851 83.735 52.767 83.979 52.682L84.365 52.546C84.498 52.498 84.63 52.446 84.765 52.409C85.027 52.328 85.297 52.264 85.565 52.199L85.949 52.099C86.076 52.066 86.203 52.033 86.334 52.007C86.668 51.94 87.006 51.895 87.347 51.85L87.425 51.84C87.504 51.83 87.583 51.817 87.66 51.805C87.76 51.789 87.86 51.772 87.96 51.762C88.528 51.705 89.091 51.676 89.637 51.676C93.3538 51.6742 96.9657 52.9079 99.9046 55.1832C102.844 57.4585 104.943 60.6463 105.872 64.245C105.955 64.5622 105.964 64.8942 105.898 65.2154C105.832 65.5365 105.693 65.8382 105.492 66.097C105.295 66.3532 105.042 66.5605 104.751 66.7027C104.461 66.8449 104.142 66.9183 103.819 66.917H72.955C72.974 66.711 73.002 66.507 73.031 66.303M92.487 3.051H95.606V17.816H92.487V3.051ZM63.263 8.811C63.2646 8.44632 63.4108 8.09716 63.6695 7.84013C63.9282 7.5831 64.2783 7.4392 64.643 7.44H75.565C75.479 7.728 75.405 8.033 75.333 8.392L75.3 8.547C75.274 8.657 75.25 8.767 75.234 8.878C75.1524 9.39507 75.11 9.91755 75.107 10.441C75.1105 10.9631 75.1529 11.4842 75.234 12C75.25 12.1 75.272 12.2 75.295 12.305L75.33 12.471C75.401 12.827 75.479 13.145 75.566 13.44H64.643C64.2769 13.4392 63.926 13.2933 63.6674 13.0342C63.4087 12.7752 63.2633 12.4241 63.263 12.058V8.811Z" fill="#2C6C78"/>
<path d="M98.1 57.094C97.929 56.966 97.757 56.845 97.578 56.725C97.412 56.6128 97.2254 56.5346 97.029 56.4947C96.8327 56.4548 96.6304 56.4542 96.4337 56.4927C96.2371 56.5313 96.0501 56.6083 95.8833 56.7194C95.7165 56.8305 95.5733 56.9734 95.462 57.14C95.2367 57.4759 95.1539 57.8874 95.2317 58.2843C95.3095 58.6812 95.5416 59.031 95.877 59.257C96.01 59.347 96.143 59.439 96.271 59.535C96.4313 59.6551 96.6136 59.7424 96.8077 59.7921C97.0017 59.8417 97.2036 59.8526 97.4019 59.8242C97.6001 59.7958 97.7908 59.7286 97.9631 59.6264C98.1354 59.5243 98.2859 59.3893 98.406 59.229C98.5261 59.0687 98.6134 58.8864 98.663 58.6923C98.7127 58.4983 98.7236 58.2964 98.6952 58.0981C98.6668 57.8999 98.5996 57.7092 98.4974 57.5369C98.3953 57.3646 98.2603 57.2141 98.1 57.094Z" fill="#2C6C78"/>
<path d="M91.871 54.472C89.8699 54.1656 87.8266 54.2866 85.8757 54.8269C83.9247 55.3673 82.1103 56.3148 80.552 57.607C80.3122 57.8083 80.1401 58.0786 80.0592 58.3811C79.9784 58.6837 79.9926 59.0037 80.1 59.2979C80.2073 59.5921 80.4027 59.846 80.6594 60.0253C80.9161 60.2046 81.2219 60.3005 81.535 60.3C81.8929 60.2989 82.239 60.1722 82.513 59.942C83.7353 58.9286 85.1585 58.1856 86.6887 57.7621C88.219 57.3386 89.8216 57.2442 91.391 57.485C91.5874 57.518 91.7883 57.5115 91.9821 57.466C92.176 57.4205 92.3588 57.3369 92.52 57.22C92.7657 57.0435 92.9534 56.7981 93.0594 56.5148C93.1654 56.2315 93.1849 55.9231 93.1153 55.6287C93.0458 55.3344 92.8904 55.0673 92.6689 54.8613C92.4474 54.6554 92.1697 54.5199 91.871 54.472Z" fill="#2C6C78"/>
<path d="M36.624 57.109C36.2994 56.8682 35.8925 56.7658 35.4926 56.8242C35.0926 56.8827 34.7321 57.0973 34.49 57.421C34.3695 57.5812 34.2821 57.7638 34.2328 57.9582C34.1835 58.1525 34.1734 58.3547 34.203 58.553C34.2628 58.9526 34.4786 59.3122 34.803 59.553C35.1601 59.8191 35.5007 60.1066 35.823 60.414C36.1185 60.6784 36.5054 60.8172 36.9016 60.8012C37.2978 60.7851 37.6721 60.6153 37.9453 60.3279C38.2184 60.0405 38.3689 59.6579 38.3647 59.2614C38.3605 58.8649 38.2021 58.4856 37.923 58.204C37.5116 57.8121 37.0775 57.4448 36.623 57.104" fill="#2C6C78"/>
<path d="M31.512 54.7C29.3549 54.1936 27.1098 54.1928 24.9523 54.6978C22.7948 55.2028 20.7833 56.1998 19.075 57.611C18.8353 57.8122 18.6633 58.0824 18.5824 58.3847C18.5015 58.687 18.5155 59.0069 18.6226 59.301C18.7298 59.5951 18.9248 59.849 19.1812 60.0285C19.4376 60.2079 19.743 60.3041 20.056 60.304C20.4144 60.3034 20.7612 60.1771 21.036 59.947C22.3756 58.8395 23.9533 58.0571 25.6457 57.6611C27.338 57.265 29.0991 57.266 30.791 57.664C30.9856 57.7114 31.1877 57.7199 31.3856 57.6892C31.5835 57.6584 31.7734 57.589 31.9445 57.4849C32.1156 57.3807 32.2645 57.2439 32.3827 57.0822C32.501 56.9205 32.5862 56.7371 32.6335 56.5425C32.6808 56.3479 32.6894 56.1459 32.6587 55.9479C32.6279 55.75 32.5585 55.5601 32.4544 55.389C32.3502 55.2179 32.2134 55.069 32.0517 54.9508C31.89 54.8326 31.7066 54.7474 31.512 54.7Z" fill="#2C6C78"/>
</svg>
