<svg width="151" height="46" viewBox="0 0 151 46" fill="none" xmlns="http://www.w3.org/2000/svg">
<path fill-rule="evenodd" clip-rule="evenodd" d="M139.554 35.456C139.554 33.736 141.314 34.303 142.262 34.82C142.954 35.2265 143.741 35.4457 144.544 35.456C146.016 35.5709 147.479 35.1315 148.644 34.224C149.092 33.8156 149.445 33.3146 149.679 32.7557C149.913 32.1968 150.023 31.5935 150 30.988C150.029 30.4665 149.943 29.9451 149.75 29.4599C149.557 28.9746 149.261 28.5372 148.882 28.178C147.763 27.286 146.48 26.6224 145.106 26.225C143.936 25.9544 142.84 25.427 141.899 24.681C141.676 24.4715 141.504 24.2134 141.396 23.9268C141.289 23.6401 141.249 23.3325 141.28 23.028C141.28 21.547 141.95 20.428 143.48 20.428C144.285 20.3706 145.091 20.5271 145.815 20.8817C146.54 21.2363 147.158 21.7763 147.607 22.447C148.058 23.2271 148.448 24.0416 148.771 24.883H148.822V20.2H148.771C148.771 21.466 147.023 21.216 146.125 20.784C145.299 20.3926 144.394 20.1929 143.48 20.2C142.454 20.1895 141.465 20.5782 140.721 21.284C140.332 21.6459 140.026 22.0884 139.825 22.5806C139.624 23.0728 139.532 23.6029 139.557 24.134C139.511 24.7132 139.599 25.2951 139.815 25.8347C140.031 26.3742 140.368 26.8568 140.8 27.245C141.723 27.9882 142.796 28.5228 143.945 28.812C145.081 29.1059 146.157 29.5959 147.125 30.26C147.431 30.4664 147.674 30.7525 147.83 31.0874C147.985 31.4223 148.045 31.7931 148.005 32.16C148.005 34.237 146.824 35.23 144.547 35.23C143.151 35.1456 141.845 34.5129 140.913 33.4698C139.982 32.4266 139.5 31.0576 139.574 29.661H139.523V35.461L139.554 35.456ZM54.2319 35.183V34.955H51.0469V25.407H55.7759C59.6649 25.407 63.6559 24.079 63.6559 18.507C63.6559 12.935 58.9149 11.336 54.4189 11.336H44.3879V11.564H47.5879V34.955H44.3879V35.183H54.2319ZM51.0469 11.567H54.4819C59.0629 11.567 59.9429 15.2 59.9429 18.538C59.9429 22.279 58.3359 25.179 55.1289 25.179H51.0469V11.567ZM71.0869 35.183H63.6389V34.955H65.9999V10.511H63.6389V10.283H68.7259V25.164C68.9321 24.0211 69.4125 22.9453 70.1259 22.029C70.6048 21.4376 71.2137 20.9649 71.9053 20.6477C72.5969 20.3304 73.3524 20.1772 74.1129 20.2C74.7217 20.1668 75.3296 20.2781 75.8871 20.5247C76.4447 20.7713 76.936 21.1462 77.3209 21.619C78.0569 22.6123 78.4259 23.8301 78.3649 25.065V34.959H80.7269V35.187H73.2789V34.959H75.6399V24.459C75.6399 22.41 74.6919 20.218 72.9319 20.587C71.8291 20.8197 70.8451 21.4372 70.1559 22.329C68.9919 23.793 68.7259 25.691 68.7259 28.32V34.955H71.0869V35.183ZM79.2059 42.812C79.186 43.1999 79.2602 43.5869 79.4223 43.9399C79.5845 44.2929 79.8297 44.6013 80.1369 44.839C80.4904 45.1078 80.8985 45.296 81.3325 45.3904C81.7664 45.4848 82.2158 45.483 82.649 45.3852C83.0822 45.2875 83.4888 45.096 83.8402 44.8244C84.1915 44.5528 84.4792 44.2076 84.6829 43.813C85.0428 43.1947 85.3345 42.5392 85.5529 41.858L93.0239 20.7H94.8349V20.472H90.5939V20.7H92.7519L88.9359 31.419L83.6569 20.7H86.6879V20.472H79.0749V20.7H80.6999L87.5299 35.472L85.3299 41.596C84.7449 43.311 84.1349 44.45 83.0049 44.45C82.2559 44.45 81.9639 44.228 81.9639 43.683C81.9728 43.4328 82.0166 43.185 82.0939 42.947C82.1712 42.6689 82.2171 42.3832 82.2309 42.095C82.2261 41.9363 82.1889 41.7803 82.1218 41.6364C82.0547 41.4925 81.959 41.3638 81.8406 41.2581C81.7222 41.1524 81.5834 41.0719 81.4329 41.0215C81.2824 40.9711 81.1231 40.9519 80.9649 40.965C80.7238 40.9569 80.4837 41 80.2604 41.0914C80.0371 41.1829 79.8357 41.3205 79.6694 41.4954C79.5032 41.6702 79.3758 41.8783 79.2958 42.1059C79.2157 42.3335 79.1848 42.5755 79.2049 42.816L79.2059 42.812ZM95.0789 35.456C95.0789 33.736 96.8389 34.303 97.7869 34.82C98.4795 35.2264 99.266 35.4456 100.069 35.456C101.543 35.5722 103.007 35.1327 104.174 34.224C104.621 33.8154 104.974 33.3141 105.207 32.7552C105.44 32.1963 105.549 31.5932 105.525 30.988C105.554 30.4665 105.468 29.9451 105.275 29.4599C105.082 28.9746 104.786 28.5372 104.407 28.178C103.288 27.286 102.005 26.6224 100.631 26.225C99.4607 25.9544 98.3652 25.427 97.4239 24.681C97.2007 24.4715 97.0287 24.2134 96.9214 23.9268C96.814 23.6401 96.7742 23.3325 96.8049 23.028C96.8049 21.547 97.4749 20.428 99.0049 20.428C99.8098 20.3705 100.616 20.527 101.34 20.8816C102.065 21.2362 102.683 21.7762 103.132 22.447C103.583 23.2271 103.973 24.0416 104.296 24.883H104.347V20.2H104.296C104.296 21.466 102.547 21.216 101.651 20.784C100.823 20.3918 99.9163 20.1922 98.9999 20.2C97.9745 20.1896 96.9851 20.5783 96.2409 21.284C95.8515 21.6459 95.5456 22.0884 95.3446 22.5806C95.1436 23.0728 95.0523 23.6029 95.0769 24.134C95.0311 24.7132 95.1194 25.2951 95.335 25.8347C95.5505 26.3742 95.8876 26.8568 96.3199 27.245C97.2429 27.9882 98.3158 28.5228 99.4649 28.812C100.601 29.1059 101.677 29.5959 102.645 30.26C102.951 30.4664 103.194 30.7525 103.35 31.0874C103.505 31.4223 103.565 31.7931 103.525 32.16C103.525 34.237 102.344 35.23 100.067 35.23C98.6717 35.1441 97.3668 34.5105 96.4365 33.467C95.5062 32.4236 95.0258 31.0549 95.0999 29.659H95.0489V35.459L95.0789 35.456ZM107.444 31.97C107.418 32.4478 107.501 32.9251 107.686 33.3665C107.871 33.8079 108.153 34.2018 108.511 34.519C109.307 35.1665 110.313 35.4979 111.338 35.45C112.23 35.4719 113.11 35.2437 113.878 34.7913C114.647 34.3388 115.273 33.6802 115.687 32.89V33C116.368 35.146 119.207 35.913 121.274 35.215V35.075C118.574 35.609 118.412 35.197 118.412 33.33V25.827C118.484 24.3498 118.012 22.8976 117.084 21.746C116.537 21.191 115.874 20.7641 115.143 20.4961C114.412 20.2281 113.63 20.1256 112.854 20.196C111.523 20.1605 110.22 20.5842 109.164 21.396C108.715 21.6925 108.343 22.0924 108.08 22.5622C107.818 23.032 107.671 23.558 107.654 24.096C107.632 24.3079 107.657 24.5221 107.729 24.7228C107.801 24.9235 107.917 25.1055 108.068 25.2554C108.22 25.4052 108.403 25.5191 108.604 25.5886C108.806 25.6582 109.02 25.6815 109.232 25.657C110.163 25.657 110.646 25.112 110.646 24.457C110.641 24.0982 110.556 23.7451 110.396 23.424C109.63 21.658 110.85 20.424 112.803 20.424C115.772 20.424 115.687 22.58 115.687 24.524V26.205C114.421 26.591 113.053 27.005 111.634 27.42C109.034 28.186 107.444 29.305 107.444 31.967V31.97ZM110.339 31.703C110.339 29.421 110.907 27.866 112.094 27.52L115.687 26.436V32.522C115.034 33.669 113.734 34.978 112.712 34.978C111.123 34.978 110.339 33.77 110.339 31.703ZM129.639 35.183V34.955H127.277V10.3H122.191V10.528H124.552V34.955H122.191V35.183H129.639ZM137.956 35.183V34.955H135.594V20.468H130.508V20.7H132.869V34.955H130.508V35.183H137.956ZM132.8 14.053C133.19 14.4349 133.713 14.6489 134.259 14.6489C134.805 14.6489 135.328 14.4349 135.718 14.053C136.104 13.6632 136.32 13.1369 136.32 12.5885C136.32 12.04 136.104 11.5138 135.718 11.124C135.33 10.737 134.803 10.5202 134.255 10.5212C133.707 10.5223 133.181 10.741 132.794 11.1295C132.407 11.5179 132.191 12.0441 132.192 12.5923C132.193 13.1406 132.412 13.666 132.8 14.053Z" fill="white"/>
<path fill-rule="evenodd" clip-rule="evenodd" d="M29.859 32.2C28.6983 33.5473 27.1277 34.4765 25.388 34.845C23.2356 35.3658 20.9804 35.2733 18.878 34.578C17.9516 34.2718 16.9853 34.1033 16.01 34.078C15.0558 34.1088 14.111 34.2772 13.205 34.578C11.0986 35.2865 8.83352 35.3778 6.67698 34.841C4.94067 34.4543 3.37691 33.5141 2.22098 32.162C-4.30002 24.656 5.12598 13.8 10.1 8.038C12.2055 5.79032 14.0814 3.33818 15.7 0.718L15.985 0.19L16.034 0L16.083 0.19L16.365 0.718C17.9847 3.33738 19.8606 5.78942 21.965 8.038C26.924 13.786 32.409 20.091 31.985 27.26C31.7902 29.0833 31.0492 30.8051 29.859 32.2ZM14.082 33.566C12.2732 33.2827 10.547 32.6119 9.02153 31.5997C7.49602 30.5874 6.20719 29.2576 5.24325 27.7011C4.27931 26.1446 3.66301 24.3982 3.43652 22.5815C3.21003 20.7647 3.3787 18.9205 3.93098 17.175C1.18998 21.554 -0.946019 27.375 2.78798 31.675C3.8381 32.9035 5.25861 33.758 6.83598 34.11C8.87301 34.6136 11.0115 34.5252 13 33.855C13.36 33.755 13.715 33.655 14.08 33.566H14.082ZM28.137 17.175C28.6909 18.9194 28.8612 20.763 28.6362 22.5794C28.4112 24.3958 27.7963 26.1421 26.8336 27.6987C25.8708 29.2553 24.583 30.5854 23.0583 31.5979C21.5337 32.6104 19.8081 33.2815 18 33.565C18.367 33.65 18.723 33.749 19.084 33.85C21.0711 34.5088 23.203 34.5975 25.238 34.106C26.8163 33.7716 28.2412 32.9285 29.294 31.706C30.3856 30.4252 31.0649 28.8445 31.243 27.171C31.578 23.879 30.037 20.207 28.143 17.171L28.137 17.175ZM11.062 31.2C12.3808 32.5183 14.1692 33.2588 16.034 33.2588C17.8987 33.2588 19.6871 32.5183 21.006 31.2C26.056 26.151 21.106 17.478 14.106 19.464C12.9286 19.8008 11.8595 20.439 11.0045 21.3156C10.1494 22.1922 9.53787 23.2768 9.23042 24.4622C8.92297 25.6475 8.93021 26.8926 9.25144 28.0743C9.57266 29.256 10.1967 30.3334 11.062 31.2ZM12.162 32.636C11.0428 31.9589 10.1203 31.0006 9.48626 29.8564C8.85223 28.7122 8.52875 27.422 8.54798 26.114C8.58198 19.722 11.134 13.304 13.296 7.866C13.983 6.138 14.63 4.51 15.143 3.017C13.943 4.731 12.35 6.572 10.665 8.526C8.85198 10.626 6.92598 12.86 5.26498 15.189C4.41549 16.762 3.92042 18.5017 3.81449 20.2863C3.70857 22.0709 3.99436 23.857 4.65182 25.5194C5.30928 27.1818 6.32248 28.6803 7.62037 29.9097C8.91825 31.139 10.4694 32.0696 12.165 32.636H12.162ZM21.322 31.52C20.8946 31.949 20.4171 32.325 19.9 32.64C21.5961 32.0742 23.1479 31.1439 24.4463 29.9146C25.7447 28.6853 26.7582 27.1866 27.4158 25.5239C28.0733 23.8611 28.3589 22.0746 28.2525 20.2897C28.1462 18.5048 27.6504 16.7649 26.8 15.192C25.134 12.863 23.208 10.63 21.4 8.529C19.714 6.575 18.125 4.729 16.922 3.021C17.434 4.514 18.081 6.142 18.768 7.869C20.929 13.305 23.48 19.72 23.517 26.11C23.5352 27.1135 23.3506 28.1103 22.9741 29.0406C22.5976 29.971 22.037 30.8157 21.326 31.524L21.322 31.52ZM22.878 23.206C22.257 17.869 20.163 12.606 18.346 8.031C17.431 5.731 16.586 3.605 16.03 1.731C15.474 3.608 14.63 5.731 13.715 8.031C11.9 12.606 9.80698 17.873 9.18598 23.21C9.77443 21.885 10.7346 20.7592 11.9501 19.9691C13.1656 19.1789 14.5842 18.7584 16.034 18.7584C17.4837 18.7584 18.9024 19.1789 20.1179 19.9691C21.3334 20.7592 22.2935 21.885 22.882 23.21L22.878 23.206Z" fill="url(#paint0_linear_3_114)"/>
<defs>
<linearGradient id="paint0_linear_3_114" x1="-0.000610352" y1="17.593" x2="32.0081" y2="17.593" gradientUnits="userSpaceOnUse">
<stop stop-color="#A84844"/>
<stop offset="0.25" stop-color="#F3B5B1"/>
<stop offset="0.66" stop-color="#FBDAD9"/>
<stop offset="0.78" stop-color="#F3B5B1"/>
<stop offset="1" stop-color="#CC7A78"/>
</linearGradient>
</defs>
</svg>
