<svg width="33" height="33" viewBox="0 0 33 33" fill="none" xmlns="http://www.w3.org/2000/svg">
<path d="M32.6366 22.789L31.3337 13.243C31.3337 13.219 31.3263 13.196 31.321 13.172C30.3751 9.118 27.6072 7.672 25.3309 7.672H24.8352C24.7086 5.73293 23.8045 3.91216 22.3067 2.57991C20.809 1.24766 18.83 0.503949 16.7721 0.5H16.7361C14.6781 0.504887 12.6993 1.24899 11.2014 2.58121C9.70344 3.91344 8.79872 5.73392 8.67091 7.673H8.29593C6.02489 7.673 3.09181 9.121 2.29313 13.243L0.993422 22.773C0.472267 26.052 0.949992 28.447 2.45414 30.1C3.92968 31.714 6.33207 32.5 9.79372 32.5H23.7695C26.9166 32.5 29.4048 31.6 30.9651 29.9C32.5254 28.2 33.0942 25.8 32.6366 22.787M16.7403 2.127H16.7689C18.3713 2.12917 19.9139 2.70112 21.0896 3.72892C22.2653 4.75672 22.9876 6.16493 23.1128 7.673H10.3933C10.519 6.16458 11.2419 4.75622 12.4182 3.72843C13.5944 2.70065 15.1376 2.12888 16.7403 2.127M29.6632 28.837C28.1189 30.52 25.6063 30.873 23.7695 30.873H9.79372C6.85958 30.873 4.88513 30.273 3.75596 29.033C2.62679 27.793 2.25923 25.758 2.69671 22.997L3.99218 13.497C4.59595 10.4 6.61066 9.3 8.29593 9.3H25.3309C26.9304 9.3 28.8963 10.4 29.6283 13.488L30.928 23.008C31.3125 25.541 30.8867 27.502 29.6569 28.836" fill="white"/>
</svg>
